<svg width="736" height="418" viewBox="0 0 736 418" fill="none" xmlns="http://www.w3.org/2000/svg">
<g opacity="0.2">
<path d="M0.000776708 21.6005C0.000776708 21.6005 5.63937 17.3727 7.25785 10.483C8.87634 3.54103 14.8804 -0.947747 14.8804 -0.947747" stroke="white" stroke-width="2" stroke-miterlimit="10"/>
<path d="M0.000627259 40.3906C0.000627259 40.3906 19.318 34.4404 24.4345 19.4605C29.3422 4.8981 49.1816 -0.999933 49.1816 -0.999933" stroke="white" stroke-width="2" stroke-miterlimit="10"/>
<path d="M0.000541541 59.1808C0.000541541 59.1808 32.9967 51.5081 41.559 28.4902C49.8602 6.30734 83.4829 -0.999947 83.4829 -0.999947" stroke="white" stroke-width="2" stroke-miterlimit="10"/>
<path d="M0.00046927 78.0231C0.00046927 78.0231 46.6232 68.5758 58.7357 37.5199C70.2739 7.71656 117.784 -0.999985 117.784 -0.999985" stroke="white" stroke-width="2" stroke-miterlimit="10"/>
<path d="M0.00023928 96.8134C0.00023928 96.8134 60.3018 85.6436 75.8601 46.5496C90.7397 9.07367 152.033 -0.999933 152.033 -0.999933" stroke="white" stroke-width="2" stroke-miterlimit="10"/>
<path d="M0.000680474 115.656C0.000680474 115.656 73.981 102.764 93.0373 55.5794C111.258 10.483 186.335 -0.999939 186.335 -0.999939" stroke="white" stroke-width="2" stroke-miterlimit="10"/>
<path d="M0.00150031 134.446C0.00150031 134.446 87.6084 119.779 110.163 64.6091C131.673 11.8922 220.585 -0.999933 220.585 -0.999933" stroke="white" stroke-width="2" stroke-miterlimit="10"/>
<path d="M0.0014006 153.236C0.0014006 153.236 101.287 136.847 127.339 73.5866C152.191 13.2493 254.938 -0.999957 254.938 -0.999957" stroke="white" stroke-width="2" stroke-miterlimit="10"/>
<path d="M0.000859618 172.078C0.000859618 172.078 114.965 153.967 144.516 82.6685C172.656 14.6585 289.239 -0.99996 289.239 -0.99996" stroke="white" stroke-width="2" stroke-miterlimit="10"/>
<path d="M0.000709014 190.869C0.000709014 190.869 128.592 171.035 161.64 91.6461C193.122 16.0678 323.541 -0.999928 323.541 -0.999928" stroke="white" stroke-width="2" stroke-miterlimit="10"/>
<path d="M0.00058254 209.659C0.00058254 209.659 142.27 188.05 178.817 100.676C213.588 17.4249 357.79 -0.999913 357.79 -0.999913" stroke="white" stroke-width="2" stroke-miterlimit="10"/>
<path d="M0.000944257 228.501C0.000944257 228.501 155.95 205.17 195.942 109.705C234.054 18.8341 392.091 -0.999959 392.091 -0.999959" stroke="white" stroke-width="2" stroke-miterlimit="10"/>
<path d="M0.000826673 247.291C0.000826673 247.291 169.576 222.238 213.118 118.735C254.52 20.1912 426.393 -0.999968 426.393 -0.999968" stroke="white" stroke-width="2" stroke-miterlimit="10"/>
<path d="M0.00070909 266.081C0.00070909 266.081 183.255 239.305 230.243 127.765C274.986 21.6005 460.694 -0.999916 460.694 -0.999916" stroke="white" stroke-width="2" stroke-miterlimit="10"/>
<path d="M0.00106192 284.924C0.00106192 284.924 196.934 256.373 247.42 136.795C295.452 23.0097 494.943 -0.999983 494.943 -0.999983" stroke="white" stroke-width="2" stroke-miterlimit="10"/>
<path d="M0.000516473 303.714C0.000516473 303.714 210.56 273.441 264.544 145.824C315.918 24.3668 529.244 -0.999896 529.244 -0.999896" stroke="white" stroke-width="2" stroke-miterlimit="10"/>
<path d="M0.000891087 322.504C0.000891087 322.504 224.239 290.509 281.721 154.802C336.384 25.7761 563.546 -0.99994 563.546 -0.99994" stroke="white" stroke-width="2" stroke-miterlimit="10"/>
<path d="M0.0006773 341.346C0.0006773 341.346 237.918 307.576 298.898 163.884C356.85 27.1853 597.847 -0.999978 597.847 -0.999978" stroke="white" stroke-width="2" stroke-miterlimit="10"/>
<path d="M0.000103301 360.137C0.000103301 360.137 251.544 324.644 316.022 172.861C377.315 28.5424 632.148 -0.999987 632.148 -0.999987" stroke="white" stroke-width="2" stroke-miterlimit="10"/>
<path d="M0.000944409 378.927C0.000944409 378.927 265.223 341.712 333.199 181.891C397.782 29.9516 666.398 -0.999996 666.398 -0.999996" stroke="white" stroke-width="2" stroke-miterlimit="10"/>
<path d="M0.000858691 397.769C0.000858691 397.769 278.902 358.832 350.324 190.921C418.3 31.3609 700.699 -0.999941 700.699 -0.999941" stroke="white" stroke-width="2" stroke-miterlimit="10"/>
<path d="M0.000709242 416.559C0.000709242 416.559 292.528 375.847 367.501 199.95C438.766 32.718 735 -0.99995 735 -0.99995" stroke="white" stroke-width="2" stroke-miterlimit="10"/>
</g>
</svg>
