<svg width="736" height="417" viewBox="0 0 736 417" fill="none" xmlns="http://www.w3.org/2000/svg">
<g opacity="0.2">
<path d="M735 395.959C735 395.959 729.361 400.187 727.743 407.076C726.124 414.018 720.12 418.507 720.12 418.507" stroke="white" stroke-width="2" stroke-miterlimit="10"/>
<path d="M735 377.169C735 377.169 715.682 383.119 710.566 398.099C705.658 412.661 685.819 418.559 685.819 418.559" stroke="white" stroke-width="2" stroke-miterlimit="10"/>
<path d="M735 358.379C735 358.379 702.004 366.051 693.442 389.069C685.14 411.252 651.518 418.559 651.518 418.559" stroke="white" stroke-width="2" stroke-miterlimit="10"/>
<path d="M735 339.536C735 339.536 688.377 348.984 676.265 380.04C664.727 409.843 617.216 418.559 617.216 418.559" stroke="white" stroke-width="2" stroke-miterlimit="10"/>
<path d="M735 320.746C735 320.746 674.699 331.916 659.14 371.01C644.261 408.486 582.967 418.559 582.967 418.559" stroke="white" stroke-width="2" stroke-miterlimit="10"/>
<path d="M735 301.904C735 301.904 661.019 314.796 641.963 361.98C623.742 407.076 548.666 418.559 548.666 418.559" stroke="white" stroke-width="2" stroke-miterlimit="10"/>
<path d="M734.999 283.114C734.999 283.114 647.393 297.78 624.838 352.95C603.328 405.667 514.416 418.559 514.416 418.559" stroke="white" stroke-width="2" stroke-miterlimit="10"/>
<path d="M735 264.323C735 264.323 633.714 280.713 607.662 343.973C582.81 404.31 480.062 418.559 480.062 418.559" stroke="white" stroke-width="2" stroke-miterlimit="10"/>
<path d="M735 245.481C735 245.481 620.035 263.593 590.485 334.891C562.344 402.901 445.761 418.559 445.761 418.559" stroke="white" stroke-width="2" stroke-miterlimit="10"/>
<path d="M735 226.691C735 226.691 606.409 246.525 573.36 325.913C541.878 401.492 411.46 418.559 411.46 418.559" stroke="white" stroke-width="2" stroke-miterlimit="10"/>
<path d="M735 207.901C735 207.901 592.73 229.509 556.184 316.884C521.412 400.135 377.211 418.559 377.211 418.559" stroke="white" stroke-width="2" stroke-miterlimit="10"/>
<path d="M735 189.058C735 189.058 579.051 212.389 539.059 307.854C500.946 398.725 342.909 418.559 342.909 418.559" stroke="white" stroke-width="2" stroke-miterlimit="10"/>
<path d="M735 170.268C735 170.268 565.424 195.322 521.882 298.824C480.48 397.368 308.608 418.559 308.608 418.559" stroke="white" stroke-width="2" stroke-miterlimit="10"/>
<path d="M735 151.478C735 151.478 551.746 178.254 504.758 289.794C460.014 395.959 274.307 418.559 274.307 418.559" stroke="white" stroke-width="2" stroke-miterlimit="10"/>
<path d="M734.999 132.636C734.999 132.636 538.067 161.186 487.58 280.765C439.548 394.55 240.057 418.559 240.057 418.559" stroke="white" stroke-width="2" stroke-miterlimit="10"/>
<path d="M735 113.845C735 113.845 524.441 144.118 470.456 271.735C419.083 393.193 205.756 418.559 205.756 418.559" stroke="white" stroke-width="2" stroke-miterlimit="10"/>
<path d="M735 95.0552C735 95.0552 510.762 127.051 453.279 262.757C398.616 391.783 171.455 418.559 171.455 418.559" stroke="white" stroke-width="2" stroke-miterlimit="10"/>
<path d="M735 76.2129C735 76.2129 497.083 109.983 436.103 253.676C378.151 390.374 137.153 418.559 137.153 418.559" stroke="white" stroke-width="2" stroke-miterlimit="10"/>
<path d="M735 57.4227C735 57.4227 483.457 92.9153 418.979 244.698C357.685 389.017 102.853 418.559 102.853 418.559" stroke="white" stroke-width="2" stroke-miterlimit="10"/>
<path d="M735 38.6326C735 38.6326 469.777 75.8475 401.801 235.668C337.218 387.608 68.6025 418.559 68.6025 418.559" stroke="white" stroke-width="2" stroke-miterlimit="10"/>
<path d="M735 19.7902C735 19.7902 456.099 58.7276 384.677 226.639C316.7 386.198 34.3013 418.559 34.3013 418.559" stroke="white" stroke-width="2" stroke-miterlimit="10"/>
<path d="M735 1C735 1 442.472 41.712 367.5 217.609C296.234 384.841 0 418.559 0 418.559" stroke="white" stroke-width="2" stroke-miterlimit="10"/>
</g>
</svg>
